<svg width="30" height="31" viewBox="0 0 30 31" fill="none" xmlns="http://www.w3.org/2000/svg">
<g clip-path="url(#clip0_1_99)">
<path d="M10.3145 24.0352C10.3145 24.1523 10.1797 24.2461 10.0098 24.2461C9.81641 24.2637 9.68164 24.1699 9.68164 24.0352C9.68164 23.918 9.81641 23.8242 9.98633 23.8242C10.1621 23.8066 10.3145 23.9004 10.3145 24.0352ZM8.49219 23.7715C8.45117 23.8887 8.56836 24.0234 8.74414 24.0586C8.89648 24.1172 9.07227 24.0586 9.10742 23.9414C9.14258 23.8242 9.03125 23.6895 8.85547 23.6367C8.70312 23.5957 8.5332 23.6543 8.49219 23.7715ZM11.082 23.6719C10.9121 23.7129 10.7949 23.8242 10.8125 23.959C10.8301 24.0762 10.9824 24.1523 11.1582 24.1113C11.3281 24.0703 11.4453 23.959 11.4277 23.8418C11.4102 23.7305 11.252 23.6543 11.082 23.6719ZM14.9375 1.21875C6.81055 1.21875 0.59375 7.38867 0.59375 15.5156C0.59375 22.0137 4.68359 27.5742 10.5254 29.5312C11.2754 29.666 11.5391 29.2031 11.5391 28.8223C11.5391 28.459 11.5215 26.4551 11.5215 25.2246C11.5215 25.2246 7.41992 26.1035 6.55859 23.4785C6.55859 23.4785 5.89062 21.7734 4.92969 21.334C4.92969 21.334 3.58789 20.4141 5.02344 20.4316C5.02344 20.4316 6.48242 20.5488 7.28516 21.9434C8.56836 24.2051 10.7188 23.5547 11.5566 23.168C11.6914 22.2305 12.0723 21.5801 12.4941 21.1934C9.21875 20.8301 5.91406 20.3555 5.91406 14.7188C5.91406 13.1074 6.35938 12.2988 7.29688 11.2676C7.14453 10.8867 6.64648 9.31641 7.44922 7.28906C8.67383 6.9082 11.4922 8.87109 11.4922 8.87109C12.6641 8.54297 13.9238 8.37305 15.1719 8.37305C16.4199 8.37305 17.6797 8.54297 18.8516 8.87109C18.8516 8.87109 21.6699 6.90234 22.8945 7.28906C23.6973 9.32227 23.1992 10.8867 23.0469 11.2676C23.9844 12.3047 24.5586 13.1133 24.5586 14.7188C24.5586 20.373 21.1074 20.8242 17.832 21.1934C18.3711 21.6562 18.8281 22.5352 18.8281 23.9121C18.8281 25.8867 18.8105 28.3301 18.8105 28.8105C18.8105 29.1914 19.0801 29.6543 19.8242 29.5195C25.6836 27.5742 29.6562 22.0137 29.6562 15.5156C29.6562 7.38867 23.0645 1.21875 14.9375 1.21875ZM6.28906 21.4277C6.21289 21.4863 6.23047 21.6211 6.33008 21.7324C6.42383 21.8262 6.55859 21.8672 6.63477 21.791C6.71094 21.7324 6.69336 21.5977 6.59375 21.4863C6.5 21.3926 6.36523 21.3516 6.28906 21.4277ZM5.65625 20.9531C5.61523 21.0293 5.67383 21.123 5.79102 21.1816C5.88477 21.2402 6.00195 21.2227 6.04297 21.1406C6.08398 21.0645 6.02539 20.9707 5.9082 20.9121C5.79102 20.877 5.69727 20.8945 5.65625 20.9531ZM7.55469 23.0391C7.46094 23.1152 7.49609 23.291 7.63086 23.4023C7.76562 23.5371 7.93555 23.5547 8.01172 23.4609C8.08789 23.3848 8.05273 23.209 7.93555 23.0977C7.80664 22.9629 7.63086 22.9453 7.55469 23.0391ZM6.88672 22.1777C6.79297 22.2363 6.79297 22.3887 6.88672 22.5234C6.98047 22.6582 7.13867 22.7168 7.21484 22.6582C7.30859 22.582 7.30859 22.4297 7.21484 22.2949C7.13281 22.1602 6.98047 22.1016 6.88672 22.1777Z" fill="#FB923C"/>
</g>
<defs>
<clipPath id="clip0_1_99">
<path d="M0.59375 0.75H29.6562V30.75H0.59375V0.75Z" fill="white"/>
</clipPath>
</defs>
</svg>
