<?xml version="1.0" encoding="UTF-8"?>
<svg id="Layer_2" data-name="Layer 2" xmlns="http://www.w3.org/2000/svg" xmlns:xlink="http://www.w3.org/1999/xlink" viewBox="0 0 1080 1080">
  <defs>
    <style>
      .cls-1 {
        fill: url(#linear-gradient);
        filter: url(#drop-shadow-5);
      }
    </style>
    <linearGradient id="linear-gradient" x1="244.49" y1="563.79" x2="835.51" y2="563.79" gradientUnits="userSpaceOnUse">
      <stop offset=".1" stop-color="#6b58b0"/>
      <stop offset=".15" stop-color="#6d58ac"/>
      <stop offset=".19" stop-color="#755aa2"/>
      <stop offset=".23" stop-color="#835c92"/>
      <stop offset=".26" stop-color="#97607a"/>
      <stop offset=".3" stop-color="#b0645b"/>
      <stop offset=".33" stop-color="#cf6a36"/>
      <stop offset=".34" stop-color="#e26e20"/>
      <stop offset=".38" stop-color="#e76f19"/>
      <stop offset=".44" stop-color="#f67107"/>
      <stop offset=".46" stop-color="#fc7300"/>
      <stop offset=".47" stop-color="#fc790b"/>
      <stop offset=".49" stop-color="#fc8a2a"/>
      <stop offset=".51" stop-color="#fda55c"/>
      <stop offset=".54" stop-color="#fdcba1"/>
      <stop offset=".58" stop-color="#fefbf8"/>
      <stop offset=".58" stop-color="#fff"/>
      <stop offset=".58" stop-color="#faf9fc"/>
      <stop offset=".62" stop-color="#d4cee8"/>
      <stop offset=".66" stop-color="#b3aad6"/>
      <stop offset=".7" stop-color="#998cc8"/>
      <stop offset=".74" stop-color="#8475bd"/>
      <stop offset=".79" stop-color="#7664b6"/>
      <stop offset=".84" stop-color="#6d5bb1"/>
      <stop offset=".91" stop-color="#6b58b0"/>
    </linearGradient>
    <filter id="drop-shadow-5" x="236.37" y="191.08" width="621.36" height="759.36" filterUnits="userSpaceOnUse">
      <feOffset dx="7" dy="7"/>
      <feGaussianBlur result="blur" stdDeviation="5"/>
      <feFlood flood-color="#000" flood-opacity=".75"/>
      <feComposite in2="blur" operator="in"/>
      <feComposite in="SourceGraphic"/>
    </filter>
  </defs>
  <g id="Layer_3" data-name="Layer 3">
    <path class="cls-1" d="M835.51,199.24c-66.2,26.76-132.4,53.52-198.6,80.28l-194.22-79.61c-66.07,35.27-132.14,70.55-198.2,105.82,87.47,47.76,174.94,95.51,262.41,143.27-87.47,159.56-174.94,319.11-262.41,478.67,66.06-26.38,132.12-52.76,198.18-79.13l194.66,79.8c65.89-35.12,131.78-70.25,197.67-105.37-86.24-47.78-172.47-95.55-258.71-143.33,86.41-160.13,172.82-320.27,259.23-480.4Z"/>
  </g>
</svg>