<svg width="27" height="31" viewBox="0 0 27 31" fill="none" xmlns="http://www.w3.org/2000/svg">
<g clip-path="url(#clip0_1_96)">
<path d="M24.7188 2.625H2.21289C1.18164 2.625 0.34375 3.47461 0.34375 4.51758V26.9824C0.34375 28.0254 1.18164 28.875 2.21289 28.875H24.7188C25.75 28.875 26.5938 28.0254 26.5938 26.9824V4.51758C26.5938 3.47461 25.75 2.625 24.7188 2.625ZM8.27734 25.125H4.38672V12.5977H8.2832V25.125H8.27734ZM6.33203 10.8867C5.08398 10.8867 4.07617 9.87305 4.07617 8.63086C4.07617 7.38867 5.08398 6.375 6.33203 6.375C7.57422 6.375 8.58789 7.38867 8.58789 8.63086C8.58789 9.87891 7.58008 10.8867 6.33203 10.8867ZM22.8613 25.125H18.9707V19.0312C18.9707 17.5781 18.9414 15.709 16.9492 15.709C14.9219 15.709 14.6113 17.291 14.6113 18.9258V25.125H10.7207V12.5977H14.4531V14.3086H14.5059C15.0273 13.3242 16.2988 12.2871 18.1914 12.2871C22.1289 12.2871 22.8613 14.8828 22.8613 18.2578V25.125Z" fill="#C084FC"/>
</g>
<defs>
<clipPath id="clip0_1_96">
<path d="M0.34375 0.75H26.5938V30.75H0.34375V0.75Z" fill="white"/>
</clipPath>
</defs>
</svg>
