<?xml version="1.0" encoding="UTF-8"?>
<svg id="Layer_2" xmlns="http://www.w3.org/2000/svg" version="1.1" viewBox="0 0 1080 1080">
  <!-- Generator: Adobe Illustrator 29.6.1, SVG Export Plug-In . SVG Version: 2.1.1 Build 9)  -->
  <defs>
    <style>
      .st0 {
        fill: #6b58b0;
      }

      .st1 {
        fill: #fc7300;
      }
    </style>
  </defs>
  <rect class="st0" x="967.31" y="569.23" width="18.54" height="19.21"/>
  <g>
    <rect class="st0" x="123.76" y="474.13" width="18.33" height="18.33" transform="translate(-5.47 1.54) rotate(-.65)"/>
    <path class="st0" d="M729.44,587.32v-19.07c9.83-.02,19.65-.03,29.48-.06l-.87-75.74-28.4.32-.21-18.94,47.34-.54c.38,31.65.77,63.29,1.15,94.94h28.54v19.21c-25.68-.04-51.36-.09-77.03-.13h0Z"/>
    <path class="st1" d="M220.17,636.59c21.49-57.59,42.99-115.18,64.5-172.77,28.4-11.48,56.8-22.96,85.19-34.43-28.63,53.07-57.28,106.15-85.91,159.22,28.63,15.82,57.28,31.65,85.91,47.46-21.9,11.66-43.79,23.3-65.69,34.96l-83.99-34.43h0Z"/>
    <path class="st0" d="M322.8,464.41c-21.36,57.17-42.73,114.32-64.09,171.49-28.98,11.58-57.97,23.15-86.95,34.72,28.99-52.88,57.98-105.77,86.97-158.64-28.99-15.83-57.98-31.66-86.97-47.49,21.9-11.69,43.79-23.38,65.69-35.07l85.37,34.99h-.01Z"/>
    <path class="st0" d="M95.02,588.41c-.07-6.39-.15-12.78-.21-19.19h28.75c-.17-12.65-.32-25.31-.49-37.96h-28.69c-.08-6.46-.16-12.91-.22-19.36h47.94c.22,19.11.44,38.22.66,57.33h29v19.17h-76.74.01Z"/>
    <path class="st0" d="M566.06,571.85c.04-14.33.09-28.68.13-43.01.1-.94.71-7.43-4.29-12.69-4.93-5.18-11.42-5.06-12.39-5.03-11.34.1-22.69.19-34.03.29-1.83,2.67-3.67,5.33-5.5,8-.26-15.03-.5-30.05-.76-45.06h-17.96c.12,37.28.25,74.55.37,111.82,6.29-.07,12.59-.15,18.88-.21-.03-2.5-.06-5-.09-7.48,1.85,2.36,3.69,4.73,5.54,7.11,6.82.45,23.22,1.36,37.67.58,2.94-.16,7.45-.48,10.28-3.75,3.05-3.52,2.49-8.51,2.14-10.54h0ZM553.76,565.69c0,1.74-1.41,3.16-3.16,3.16h-31.69c-1.74,0-3.16-1.41-3.16-3.16v-31.12c0-1.74,1.41-3.16,3.16-3.16h31.69c1.74,0,3.16,1.41,3.16,3.16v31.12Z"/>
    <path class="st0" d="M446.04,530.71c-.21-11.69-9.75-21.06-21.45-21.06h-43.37c-1.28,0-2.32,1.06-2.3,2.34l.28,14.68c.02,1.26,1.06,2.26,2.31,2.25l39.86-.25c2.58-.01,4.7,2.09,4.7,4.66s-2.01,4.53-4.51,4.56l-31.61.38c-11.58,2.01-20.12,12.11-20.18,23.82-.06,11.8,8.52,22.04,20.2,24.06h32.85c.41-.03.75-.13,1.04-.25,2.44-1.02,2.79-4.65,2.82-5.03.12.7.57,2.62,2.25,4.08.73.62,1.46.98,2.02,1.19h13.76c1.28,0,2.32-1.06,2.3-2.34l-.96-53.11h-.01ZM427.19,564.09c0,1.83-1.48,3.32-3.32,3.32h-31c-1.83,0-3.32-1.48-3.32-3.32v-6.95h37.65v6.95h0Z"/>
    <path class="st0" d="M693.19,572.99c-.02-.91-.08-1.62-.08-1.66-.21-2.02-46.51-.67-52.84-.48-.15,0-2.77-.13-3.6-1.95-.12-.26-.23-.62-.25-1.1v-4.09c0-1.44,1.15-2.6,2.57-2.6h4l29.58-.36c.29,0,.58-.03.86-.08,5.59-1.08,10.44-4.09,13.93-8.25.84-.99,5.93-7.28,5.74-15.65-.22-10.02-7.94-19.55-19.4-23.5-.49-.17-1-.25-1.52-.25-12.39.04-24.79.08-37.18.12-10.11.03-18.27,8.24-18.25,18.35.02,13.25.06,26.49.08,39.74,0,.38.04.75.13,1.1.56,2.29,1.86,6.18,5.1,9.86,4.61,5.24,10.31,6.82,12.72,7.31.3.07.61.09.93.09,19.13.04,38.26.09,57.39.12.02-4.89.06-9.76.08-14.65.01-.56.02-1.26,0-2.06h0ZM636.18,536.18c0-1.83,1.48-3.32,3.32-3.32h31c1.83,0,3.32,1.48,3.32,3.32v6.95h-37.65v-6.95h0Z"/>
    <path class="st0" d="M929.78,572.99c-.02-.91-.08-1.62-.08-1.66-.21-2.02-46.51-.67-52.84-.48-.15,0-2.77-.13-3.6-1.95-.12-.26-.23-.62-.25-1.1v-4.09c0-1.44,1.15-2.6,2.57-2.6h4l29.58-.36c.29,0,.58-.03.86-.08,5.59-1.08,10.44-4.09,13.93-8.25.84-.99,5.93-7.28,5.74-15.65-.22-10.02-7.94-19.55-19.4-23.5-.49-.17-1-.25-1.52-.25-12.39.04-24.79.08-37.18.12-10.11.03-18.27,8.24-18.25,18.35.02,13.25.06,26.49.08,39.74,0,.38.04.75.13,1.1.56,2.29,1.86,6.18,5.1,9.86,4.61,5.24,10.31,6.82,12.72,7.31.3.07.61.09.93.09,19.13.04,38.26.09,57.39.12.02-4.89.06-9.76.08-14.65.01-.56.02-1.26,0-2.06h0ZM872.75,536.18c0-1.83,1.48-3.32,3.32-3.32h31c1.83,0,3.32,1.48,3.32,3.32v6.95h-37.65v-6.95h0Z"/>
  </g>
</svg>